<?xml version="1.0" encoding="utf-8"?>
<!-- Generator: Adobe Illustrator 15.1.0, SVG Export Plug-In . SVG Version: 6.00 Build 0)  -->
<!DOCTYPE svg PUBLIC "-//W3C//DTD SVG 1.1//EN" "http://www.w3.org/Graphics/SVG/1.1/DTD/svg11.dtd">
<svg version="1.1" id="Layer_1" xmlns="http://www.w3.org/2000/svg" xmlns:xlink="http://www.w3.org/1999/xlink" x="0px" y="0px"
	 width="168.581px" height="189.162px" viewBox="0 0 168.581 189.162" enable-background="new 0 0 168.581 189.162"
	 xml:space="preserve">
<path fill="#C2141C" d="M114.878,36.442c-0.145-0.128-0.268-0.073-0.382,0.042c-0.036,0.048-0.075,0.095-0.113,0.142
	c0.023,0.155,0.041,0.314,0.279,0.243c0.077-0.009,0.148-0.017,0.224-0.025c0.223-0.059,0.446-0.117,0.668-0.176
	c0.126-0.199,0.09-0.303-0.176-0.275C115.197,36.292,115.035,36.342,114.878,36.442z M115.993,34.998
	c0.123,0.213,0.075,0.501,0.32,0.659c-0.029-0.241,0.243-0.402,0.205-0.629c-0.031-0.194,0.023-0.509-0.259-0.52
	C115.955,34.496,115.997,34.789,115.993,34.998z M121.871,29.297c0.366,0.129,0.742,0.466,1.144,0.056
	c0.103-0.066,0.207-0.134,0.31-0.2c0.095-0.174,0.191-0.349,0.287-0.523c-0.1-0.231-0.192-0.468-0.419-0.623
	c-0.07-0.233-0.223-0.206-0.396-0.11c-0.229,0.053-0.456,0.104-0.686,0.154c-0.327,0.019-0.587,0.147-0.579,0.488
	C121.539,28.822,121.507,29.169,121.871,29.297z M45.665,123.938c0,0,0,0.002,0.001,0.002c0.002-0.002,0.002-0.003,0.004-0.006
	L45.665,123.938z M116.955,37.754c-0.039-0.06-0.15-0.047-0.192,0.024c-0.128,0.213-0.06,0.415,0.078,0.597
	c0.048,0.063,0.13,0.064,0.207-0.029C117.09,38.152,117.08,37.941,116.955,37.754z M123.015,11.034
	c0.142-0.075,0.216-1.087,0.079-1.209c-0.019-0.007-0.062-0.031-0.1-0.025c-0.108,0.022-0.128,0.11-0.131,0.197
	c-0.012,0.299-0.02,0.596-0.022,0.895C122.844,10.981,122.848,11.124,123.015,11.034z M122.039,37.748
	c-0.052,0.156-0.365,0.24-0.15,0.47c0.236,0.073,0.233-0.195,0.387-0.241c0.107-0.142,0.213-0.283,0.32-0.425
	C122.294,37.321,122.212,37.654,122.039,37.748z M117.864,40.399c-0.26-0.386-0.48-0.055-0.712,0.037
	c-0.057,0.116-0.114,0.231-0.17,0.347C117.519,41.157,117.661,40.718,117.864,40.399z M115.767,22.261
	c-0.483-0.023-0.641,0.965-1.048,1c-0.857,0.583-0.734,1.745-0.579,2.607c0.046,0.445,0.345,0.625,0.683,0.95
	c0.247,0.792,1.337,0.776,2.056,0.838c1.648,0.091,2.813-1.451,2.786-2.914c0.037-0.047,0.082-0.082,0.112-0.138
	c0.247-0.476-0.151-0.674-0.352-0.897c-0.622-0.335-0.937-0.973-1.438-1.367C117.269,22.2,116.508,22.2,115.767,22.261z
	 M114.993,20.654c-0.587-0.242-0.729,0.638-0.354,0.912C115.078,21.82,115.583,20.806,114.993,20.654z M98.771,23.359
	c-0.148,0.515,0.24,0.507,0.539,0.586c0.046,0.02,0.093,0.04,0.152,0.054c0.039,0.097,0.078,0.195,0.117,0.293
	c0.124,0.063,0.251,0.126,0.377,0.188c0.388,0.391,0.824,0.578,1.369,0.279c0.342,0.03,0.434-0.365,0.74-0.391
	c0.116-0.14,0.232-0.279,0.346-0.418c0.196-0.229,0.255-0.497,0.252-0.782c0.123-0.938-0.648-1.128-1.308-1.411
	c-0.354,0.018-0.708-0.168-1.057,0.025c-0.175-0.021-0.424-0.34-0.489-0.096c-0.191,0.698-0.724,0.796-1.328,0.846
	C98.021,22.983,98.656,23.089,98.771,23.359z M106.396,33.074c-0.146-0.22,0.093-0.661-0.383-0.68
	c-0.406-0.018-0.686,0.185-0.754,0.592C105.633,33.53,106.106,33.567,106.396,33.074z M100.068,27.903
	c-0.141,0.184-0.15,0.378,0.06,0.529c0.176,0.125,0.365,0.154,0.526-0.018c0.176-0.193,0.146-0.391-0.026-0.576
	C100.421,27.714,100.221,27.702,100.068,27.903z M47.273,129.312c0.223,0.07,0.393-0.032,0.496-0.18
	c0.137-0.197,0.075-0.391-0.151-0.521c-0.059-0.002-0.122-0.005-0.18-0.009c-0.018,0.021-0.036,0.04-0.057,0.059
	c-0.055,0.123-0.182,0.154-0.289,0.211C47.039,129.063,47.021,129.23,47.273,129.312z M46.787,126.801
	c0.1,0.033,0.126,0.104,0.175,0.169c0.075,0.313,0.071,0.628,0.041,0.946c-0.016,0.15,0.007,0.325,0.22,0.105
	c-0.046-0.43,0.096-0.838,0.147-1.258c-0.028-0.01-0.059-0.017-0.089-0.027c-0.085-0.262-0.07-0.533-0.057-0.803
	c0.051-0.299-0.086-0.604,0.033-0.903c-0.01-0.036-0.023-0.072-0.032-0.109c0.012-0.403,0.027-0.806,0.042-1.206
	c0.003-0.026,0.008-0.049,0.016-0.072c-0.232-0.03-0.225,0.137-0.227,0.271c-0.009,0.376-0.004,0.751-0.005,1.126
	c-0.03,0.266-0.061,0.529-0.093,0.793c-0.139,0.032-0.276,0.068-0.414,0.102C46.159,126.35,46.23,126.613,46.787,126.801z
	 M114.511,33.758c0.166-0.258-0.151-0.366-0.256-0.542c-0.073,0.009-0.147,0.017-0.219,0.025c-0.156,0.192-0.214,0.394-0.076,0.619
	C114.168,33.94,114.393,33.94,114.511,33.758z M114.954,19.617c0.118,0.308,0.419,0.047,0.684,0.035
	c0.359-0.204,0.87-0.175,1.299,0.025c0.03-0.742,1.25-0.933,1.03-1.679c-0.047-0.5,0.374-1.035-0.156-1.419
	c-0.214-0.929-1.407-0.828-2.27-0.979c-0.592,0.458-1.458,0.745-1.48,1.544C113.617,18.159,114.269,18.995,114.954,19.617z
	 M108.577,12.746c0.09-0.233-0.026-0.436-0.152-0.629c-0.03-0.048-0.12-0.086-0.145-0.021c-0.087,0.235,0.052,0.432,0.135,0.617
	C108.476,12.768,108.554,12.809,108.577,12.746z M113.976,38.157c0.027,0.037,0.057,0.076,0.085,0.112
	c0.047,0.445,0.215,0.855,0.399,1.26c0.027,0.204,0.056,0.407,0.082,0.612c0.08,0.068,0.156,0.141,0.235,0.212
	c0.014-0.097,0.025-0.193,0.039-0.289c-0.051-0.163-0.101-0.327-0.151-0.49c0.008-0.525-0.375-0.947-0.44-1.452
	c0.006-0.219-0.097-0.403-0.204-0.585c-0.002-0.027-0.002-0.056-0.002-0.083c0-0.232-0.036-0.454-0.211-0.629
	c-0.014-0.015-0.106,0.007-0.108,0.019c-0.034,0.229,0.002,0.447,0.145,0.641C113.889,37.709,113.931,37.933,113.976,38.157z
	 M111.523,36.096c0.245,0.038,0.445-0.084,0.659-0.161c0.095-0.114,0.218-0.202,0.311-0.317c0.104-0.231,0.116-0.476,0.061-0.714
	c-0.084-0.365-0.234-0.734-0.624-0.863c-0.37-0.12-0.495,0.285-0.735,0.446c-0.099,0.051-0.195,0.103-0.294,0.153
	c-0.062,0.113-0.125,0.226-0.188,0.337c-0.014,0.142-0.028,0.285-0.043,0.427c0.153,0.187,0.306,0.374,0.456,0.562
	C111.272,35.974,111.396,36.038,111.523,36.096z M113.293,14.677c0.035,0.03,0.072,0.057,0.11,0.086
	c0.021-0.022,0.045-0.042,0.06-0.065c0.127-0.271,0.055-0.531-0.068-0.78c-0.015-0.027-0.141-0.043-0.146-0.03
	c-0.12,0.223,0.007,0.441,0.023,0.662C113.274,14.593,113.283,14.634,113.293,14.677z M119.521,39.816
	c0.003,0.007,0.087,0.006,0.09-0.003c0.127-0.392,0.749-0.546,0.576-1.079c-0.061,0.022-0.12,0.045-0.18,0.068
	c-0.033,0.063-0.062,0.125-0.096,0.189c-0.233,0.162-0.324,0.409-0.421,0.648C119.47,39.688,119.501,39.758,119.521,39.816z
	 M135.258,21.298c0.573-0.194,0.732-0.5,0.447-0.856c-0.195-0.25-0.56-0.261-0.946-0.03c-0.021,0.022-0.039,0.042-0.06,0.061
	c-0.169,0.219-0.07,0.448-0.027,0.672C134.836,21.302,135.039,21.335,135.258,21.298z M136.219,65.171
	c-0.079,0.157,0.024,0.266,0.171,0.328c0.142,0.062,0.31,0.081,0.382-0.073c0.074-0.152-0.07-0.251-0.18-0.348
	C136.444,65.018,136.297,65.018,136.219,65.171z M132.109,42.399c-0.339-0.073-0.696-0.303-0.971,0.109
	c-0.141,0.209-0.258,0.45-0.087,0.674c0.218,0.283,0.539,0.219,0.847,0.133c0.094-0.095,0.165-0.193,0.222-0.297
	c0.006-0.004,0.01-0.011,0.016-0.015c0.177-0.1,0.323-0.247,0.554-0.223c0.509-0.226,0.919-0.613,1.458-0.792
	c0.127-0.042,0.251-0.134,0.194-0.286c-0.039-0.105-0.171-0.14-0.264-0.079c-0.592,0.391-1.359,0.49-1.909,0.941
	C132.153,42.512,132.142,42.458,132.109,42.399z M130.492,27.624c-0.042,0.284,0.19,0.379,0.379,0.505
	c0.268,0.081,0.536,0.161,0.806,0.241c0.419-0.192,0.708-0.461,0.596-0.954c-0.172-0.209-0.394-0.328-0.679-0.329
	c-0.219-0.027-0.428,0.008-0.628,0.096C130.75,27.276,130.533,27.361,130.492,27.624z M128.291,25.26
	c0.057,0.127,0.102,0.259,0.153,0.39c0.32-0.103,0.596,0.023,0.847,0.185c0.117,0.076,0.2,0.208,0.347,0.053
	c0.352-0.145,0.689-0.365,1.054-0.415c0.496-0.069,0.527-0.315,0.454-0.674c0.068-0.388,0.137-0.775,0.202-1.163
	c-0.087-0.287-0.457-0.275-0.593-0.509c-0.249-0.169-0.499-0.335-0.831-0.266c-0.084,0-0.169,0.001-0.253,0.001
	c-0.065,0.029-0.128,0.067-0.197,0.085C128.015,23.305,127.689,23.942,128.291,25.26z M131.764,33.771
	c0.085-0.14,0.216-0.284,0.073-0.459c-0.054-0.065-0.144-0.038-0.189,0.028c-0.104,0.146-0.17,0.321-0.1,0.481
	C131.6,33.94,131.693,33.829,131.764,33.771z M164.549,65.291c0.041-0.059,0.022-0.132-0.042-0.134
	c-0.318-0.009-0.624,0.062-0.917,0.186c-0.018,0.006-0.016,0.066-0.018,0.087C163.658,65.518,164.49,65.383,164.549,65.291z
	 M141.807,77.812c0.016-0.205-0.176-0.178-0.322-0.169c-0.016,0.099-0.03,0.2-0.046,0.299
	C141.605,78.008,141.785,78.031,141.807,77.812z M136.58,61.209c-0.336-0.083-0.401,0.219-0.454,0.465
	c0.174,0.166,0.351,0.322,0.623,0.173C136.875,61.589,136.944,61.295,136.58,61.209z M124.498,40.114
	c0.502-0.412,0.388-0.795-0.314-1.054c-0.287,0.08-0.509,0.251-0.462,0.544C123.785,40.001,124.156,40.057,124.498,40.114z
	 M135.681,52.446c0.523,0.196,1.036,0.425,1.575,0.574c0.314,0.087,0.694,0.265,0.979-0.101c-0.419-0.116-0.836-0.233-1.255-0.351
	c-0.271,0.15-0.442,0.029-0.644-0.157C136.145,52.232,135.87,52.01,135.681,52.446z M138.238,52.915
	c-0.001,0.002-0.003,0.003-0.003,0.005c0,0.001,0.002,0.001,0.005,0.002L138.238,52.915z M123.423,49.089
	c0.311,0.107,0.35-0.197,0.418-0.388c0.061-0.168,0.153-0.354-0.022-0.523c-0.07-0.054-0.138-0.106-0.208-0.161
	c-0.062-0.052-0.126-0.103-0.194-0.155c-0.161,0.081-0.368,0.121-0.356,0.357c0.146,0.067,0.258,0.159,0.278,0.325
	C123.215,48.751,123.153,48.995,123.423,49.089z M123.605,50.74c-0.288,0.511,0.183,0.819,0.39,1.167
	c0.146,0.241,0.476,0.162,0.733,0.046c0.119-0.059,0.248-0.104,0.35-0.181c0.318-0.234,0.664-0.456,0.408-0.93
	c-0.062-0.115-0.027-0.277-0.036-0.417C124.432,49.735,124.072,50.088,123.605,50.74z M127.938,1.928
	c0.033,0.005,0.072-0.034,0.138-0.064c0.12-0.579,0.261-1.164,0.265-1.767c0-0.033-0.078-0.101-0.111-0.097
	c-0.045,0.009-0.108,0.065-0.114,0.108c-0.099,0.55-0.189,1.101-0.275,1.65C127.829,1.828,127.851,1.91,127.938,1.928z
	 M124.593,43.766c0.015-0.004,0.027-0.008,0.04-0.011c0.296-0.044,0.577-0.116,0.604-0.46c0.019-0.245-0.126-0.405-0.367-0.471
	c-0.233-0.062-0.411,0.036-0.533,0.222C124.123,43.377,124.359,43.571,124.593,43.766z M124.814,7.493
	c0-0.17,0.139-0.479-0.275-0.443c-0.033,0.501-0.068,1.003-0.104,1.507C124.736,8.49,124.81,8.31,124.814,7.493z M124.875,48.982
	c0.002-0.161,0.272-0.356,0.011-0.47c-0.215-0.095-0.275,0.121-0.302,0.293c0.023,0.144-0.193,0.318-0.024,0.41
	C124.686,49.285,124.764,49.062,124.875,48.982z M125.254,56.483c-0.05,0.084-0.254,0.144-0.093,0.262
	c0.109,0.081,0.265,0.021,0.378-0.062c0.166-0.131,0.111-0.242-0.065-0.323C125.402,56.401,125.327,56.443,125.254,56.483z
	 M126.638,15.182c0.11-0.214,0.253-0.429,0.133-0.681c-0.04-0.088-0.149-0.082-0.171-0.005c-0.062,0.229-0.097,0.468-0.139,0.678
	C126.548,15.255,126.608,15.235,126.638,15.182z M127.857,44.562c0.442,0.042,0.877,0.195,1.329,0.065
	c-0.175-0.402-0.599-0.261-0.904-0.375c-0.123-0.001-0.254-0.021-0.374,0c-0.141,0.021-0.375-0.085-0.396,0.126
	C127.503,44.516,127.716,44.551,127.857,44.562z M125.814,57.658c0.271-0.013,0.229-0.205,0.217-0.374l-0.003,0.002
	c-0.207-0.069-0.36-0.008-0.41,0.192C125.591,57.587,125.694,57.665,125.814,57.658z M126.483,25.832
	c0.085,0.03,0.169,0.07,0.256,0.087c0.226,0.047,0.449,0.058,0.551-0.193c0.055-0.137,0.193-0.283,0.048-0.432
	c-0.176-0.184-0.431-0.219-0.658-0.148c-0.326,0.103-0.337,0.366-0.25,0.641C126.459,25.79,126.477,25.805,126.483,25.832z
	 M134.103,63.906c-0.332,0.086-0.611-0.075-0.916-0.044c-0.129,0.022-0.26,0.044-0.39,0.067c-0.392,0.372-0.662,0.786-0.556,1.342
	c-0.001,0.002,0,0.003-0.001,0.004c-0.198-0.073-0.325,0.164-0.503,0.202c-0.302,0.063-0.652,0.019-0.851,0.325
	c-0.339,0.541-0.332,0.765,0.034,1.172c0.028,0.007,0.053,0.003,0.082,0.004c0.171,0.75,0.521,1.037,1.36,1.12
	c0.264,0,0.471-0.076,0.642-0.202c-0.052,0.202-0.069,0.413-0.014,0.62c0.315,1.21,1.907,1.461,2.764,1.105
	c0.286-0.119,0.375-0.313,0.234-0.588c-0.075-0.187-0.147-0.372-0.221-0.559c-0.027-0.029-0.053-0.058-0.081-0.086
	c-0.129-0.156-0.253-0.311-0.379-0.465c-0.047-0.144-0.092-0.291-0.138-0.434c-0.032-0.378-0.161-0.773,0.249-1.059
	c0.107-0.074,0.058-0.19,0.051-0.29c0.557-0.616-0.203-0.773-0.428-1.116c-0.051-0.144-0.099-0.288-0.146-0.432
	c-0.036-0.202-0.231-0.187-0.374-0.251C134.279,64.279,134.402,63.828,134.103,63.906z M133.846,67.112
	c-0.068-0.017-0.132-0.042-0.209-0.046c-0.059,0.03-0.098,0.077-0.148,0.115c0.003-0.162-0.083-0.324-0.112-0.483
	c0.031-0.006,0.062-0.009,0.095-0.014C133.485,66.884,133.982,66.833,133.846,67.112z M133.432,74.449
	c-0.072,0.088-0.146,0.175-0.218,0.263c0.078,0.21,0.194,0.126,0.296,0.024c0.088-0.089,0.207-0.186,0.117-0.327
	C133.617,74.39,133.5,74.433,133.432,74.449z M63.642,112.713c-0.085,0.02-0.139,0.017-0.15,0.035
	c-0.099,0.16-0.262,0.303-0.221,0.508c0.015,0.061,0.105,0.021,0.131-0.025C63.479,113.074,63.549,112.914,63.642,112.713z
	 M61.162,112.878c0.295,0.132,0.723-0.112,0.93-0.532c0.204-0.41,0.096-0.852-0.251-0.982c-0.43-0.162-0.714,0.029-0.899,0.385
	C60.713,112.191,60.821,112.724,61.162,112.878z M133.449,71.688c-0.034,0.083-0.196,0.172-0.101,0.24
	c0.196,0.139,0.335-0.094,0.509-0.133c0.068-0.089,0.145-0.177,0.047-0.292C133.755,71.565,133.603,71.625,133.449,71.688z
	 M137.684,80.049c-0.003-0.03-0.019-0.061-0.032-0.093c0.017-0.062,0.03-0.123,0.045-0.184c0.024-0.465-0.187-0.836-0.507-1.164
	c-0.057-0.037-0.113-0.072-0.171-0.106c-0.086-0.312-0.253-0.548-0.577-0.692c-0.6-0.269-1.51-0.123-2.071,0.355
	c-0.345,0.708,0.119,1.242,0.434,1.808c0.413,0.857,1.291,0.951,2.102,1.156C137.845,80.935,137.845,80.935,137.684,80.049z
	 M49.103,111.875c-0.064,0.14-0.033,0.274,0.104,0.369c0.142,0.05,0.237-0.007,0.288-0.119c0.064-0.137,0.076-0.289-0.073-0.377
	C49.281,111.666,49.16,111.75,49.103,111.875z M137.163,101.627c-0.913-0.499-1.532-0.216-1.824,0.827
	c-0.017,0.057-0.03,0.114-0.047,0.171c0.078,0.501,0.227,0.968,0.735,1.24c0.145,0.207,0.384,0.211,0.604,0.256
	c0.042,0.044,0.084,0.086,0.128,0.129c0.51,0.205,0.806-0.299,1.249-0.338c0.113-0.012,0.069-0.131,0.051-0.214
	c-0.021-0.079-0.039-0.231-0.024-0.233c0.674-0.16,0.093-0.42,0.038-0.602C137.915,102.361,137.743,101.855,137.163,101.627z
	 M60.033,115.43c-0.319-0.153-0.612-0.141-0.877,0.11c-0.277,0.261-0.403,0.579-0.355,0.94c0.038,0.295,0.309,0.455,0.66,0.43
	C60.138,116.566,60.3,116.148,60.033,115.43z M52.491,114.815c-0.321-0.171-0.621-0.055-0.77,0.257
	c-0.152,0.314-0.156,0.664,0.188,0.858c0.305,0.176,0.563,0.021,0.76-0.306C52.711,115.363,52.875,115.021,52.491,114.815z
	 M48.123,126.735c0.061,0.218,0.199,0.284,0.417,0.19c0.362-0.32,0.969-0.398,1.07-0.973c0.036-0.197,0.277-0.394-0.007-0.6
	c-0.268-0.192-0.503-0.137-0.738,0.043c-0.1,0.186-0.203,0.352-0.412,0.471C48.112,126.058,48.003,126.367,48.123,126.735z
	 M49.796,127.989c0.025-0.046,0.052-0.088,0.077-0.132c-0.03-0.133,0.027-0.325-0.229-0.299
	C49.425,127.79,49.312,127.986,49.796,127.989z M142.338,84.588c-0.354-0.146-0.71-0.303-1.075-0.435
	c-0.054,0.012-0.106,0.022-0.159,0.032c-0.102-0.025-0.203-0.05-0.305-0.077c-0.27-0.197-0.482-0.221-0.566,0.164
	c0.49,0.282,0.054,0.552-0.043,0.783c-0.314,0.733-0.23,1.165,0.404,1.649c0.516,0.395,1.175,0.368,1.749-0.088
	c0.308-0.246,0.593-0.512,0.887-0.769c0.048-0.214-0.075-0.349-0.234-0.466C142.78,85.104,142.625,84.705,142.338,84.588z
	 M166.392,83.775c0.479-0.236,0.146-0.606,0.1-0.868c-0.083-0.475-0.817-0.911-1.35-0.917c-0.581-0.007-1.051,0.38-1.042,0.857
	c0.012,0.482,0.542,0.913,1.132,0.916c0.341-0.001,0.685-0.115,1.023,0.022c-0.417,0.463-0.38,0.645,0.189,0.909
	C167.004,84.466,166.989,84.228,166.392,83.775z M162.174,72.007c-0.387,0.411-0.428,0.921-0.1,1.215
	c0.45,0.398,1.291,0.355,1.713-0.092c0.267-0.282,0.189-0.808-0.161-1.109C163.266,71.706,162.468,71.699,162.174,72.007z
	 M159.311,61.02c-0.06,0.034,0.016,0.108,0.072,0.114c0.189,0.02,0.383,0.027,0.623,0.041c-0.048-0.074-0.063-0.124-0.087-0.129
	C159.715,61.008,159.509,60.907,159.311,61.02z M137.827,55.261c-0.104,0.477,0.201,0.692,0.602,0.833
	c0.385,0.137,0.495-0.159,0.641-0.39C138.756,55.008,138.348,54.863,137.827,55.261z M166.611,73.652
	c-0.229,0.282-0.26,0.581,0.039,0.844c0.338,0.298,0.993,0.243,1.355-0.151c0.159-0.222,0.205-0.494-0.081-0.745
	C167.578,73.295,166.89,73.319,166.611,73.652z M168.351,38.368c-0.603-0.258-1.38,0.009-1.593,0.451
	c-0.218,0.448,0.032,1.089,0.58,1.226c0.516,0.13,0.89-0.227,1.097-0.635C168.623,39.037,168.665,38.614,168.351,38.368z
	 M144.179,65.513c-0.132,0.151-0.132,0.311,0.024,0.456c0.177,0.098,0.349,0.092,0.483-0.062c0.142-0.163,0.093-0.324-0.068-0.443
	C144.465,65.352,144.302,65.374,144.179,65.513z M53.373,117.047c-0.575,0.008-0.767,0.375-0.594,1.127
	c0.177,0.117,0.371,0.165,0.585,0.154c0.198-0.127,0.342-0.303,0.461-0.49C54.084,117.428,53.865,117.052,53.373,117.047z
	 M45.747,124.604c0.049-0.229,0.134-0.467-0.081-0.664c-0.006,0.01-0.014,0.02-0.021,0.029c-0.138,0.207-0.128,0.424-0.028,0.638
	C45.645,124.672,45.73,124.672,45.747,124.604z M147.331,33.059c-0.095-0.057-0.198-0.045-0.377,0.086
	c-0.905-0.036-1.198,1.151-1.072,1.882c0.335,0.255,0.571,0.592,0.883,0.781c0.459,0.121,0.887,0.054,1.285-0.04
	c0.233-0.462,0.613-0.791,0.796-1.23C148.81,33.864,148.191,32.917,147.331,33.059z M146.87,57.514
	c-0.048,0.138-0.335,0.251-0.182,0.363c0.136,0.098,0.341-0.096,0.464-0.244c0.092-0.109,0.272-0.256,0.123-0.353
	C147.07,57.147,147.022,57.444,146.87,57.514z M149.896,79.757c-0.236-0.193-0.466-0.149-0.641,0.104
	c0.12,0.426,0.517,0.49,0.873,0.608C150.431,80.121,150.119,79.938,149.896,79.757z M13.604,176.865
	c-0.403,0.21-0.582,0.613-0.387,0.903c0.239,0.356,0.575,0.36,0.931,0.18c0.443-0.222,0.672-0.7,0.5-1.001
	C14.496,176.687,14.017,176.647,13.604,176.865z M35.833,137.082c0.001-0.014,0.001-0.025,0.005-0.039
	c0.052-0.263,0.077-0.524-0.235-0.658c-0.225-0.098-0.424-0.023-0.563,0.158c-0.134,0.177-0.099,0.359,0.036,0.521
	C35.317,137.354,35.576,137.217,35.833,137.082z M55.864,122.238c-0.19,0.132,0.072,0.271,0.088,0.421
	c0.112,0.087,0.128,0.364,0.283,0.271c0.136-0.08,0.02-0.318-0.081-0.474C56.082,122.348,56.003,122.146,55.864,122.238z
	 M23.697,179.528c-0.134-0.295-0.428-0.314-0.776-0.164c-0.187,0.181-0.519,0.361-0.343,0.729c0.146,0.304,0.454,0.375,0.755,0.212
	C23.639,180.143,23.849,179.87,23.697,179.528z M23.318,183.804c-0.13,0.074-0.23,0.188-0.166,0.334
	c0.062,0.144,0.207,0.142,0.326,0.072c0.132-0.073,0.188-0.197,0.138-0.342C23.535,183.751,23.426,183.743,23.318,183.804z
	 M37.62,130.973c0.348-0.137-0.02-0.35-0.057-0.529c-0.038-0.182-0.128-0.354-0.031-0.541c-0.048-0.504-0.278-0.976-0.271-1.492
	c0.001-0.119-0.045-0.254-0.207-0.256c-0.11-0.002-0.187,0.102-0.157,0.2c0.205,0.735-0.05,1.548,0.43,2.234
	C37.5,130.674,37.359,131.074,37.62,130.973z M45.213,128.46c0.239-0.021,0.321-0.171,0.288-0.385
	c-0.068-0.148-0.166-0.264-0.357-0.26c-0.18,0.12-0.39,0.243-0.31,0.485C44.878,128.428,45.067,128.475,45.213,128.46z
	 M35.667,122.979c0.202,0.03,0.396,0.109,0.544-0.052c0.062-0.066-0.032-0.127-0.1-0.143c-0.166-0.037-0.348-0.115-0.5,0.005
	C35.504,122.877,35.635,122.924,35.667,122.979z M43.542,123.363c0.036-0.096,0.032-0.205-0.077-0.249
	c-0.131-0.055-0.225,0.019-0.27,0.134c-0.041,0.107,0.005,0.184,0.098,0.233C43.426,123.518,43.505,123.467,43.542,123.363z
	 M23.516,181.544c-0.305,0.139-0.467,0.407-0.38,0.687c0.063,0.192,0.334,0.127,0.521,0.024c0.235-0.14,0.471-0.306,0.362-0.603
	C23.937,181.425,23.71,181.46,23.516,181.544z M37.885,128.743c0.046,0.037,0.143,0.035,0.12-0.032
	c-0.067-0.213-0.208-0.391-0.388-0.533c-0.049-0.039-0.106-0.035-0.131,0.047C37.538,128.451,37.711,128.598,37.885,128.743z
	 M7.784,179.955c-0.191,0.034-0.327,0.121-0.443,0.237c-0.305,0.251-0.57,0.644-0.576,0.932c0,0.137,0.088,0.113,0.172,0.089
	c0.189-0.056,0.376-0.117,0.563-0.178c0.318-0.052,0.525-0.247,0.671-0.498C8.369,180.188,8.22,179.973,7.784,179.955z
	 M57.604,100.84c-0.172-0.331-0.233-0.713-0.533-0.988c-0.184-0.172-0.289-0.16-0.36,0.076c0.182,0.397,0.298,0.834,0.696,1.112
	c0.105,0.261,0.211,0.521,0.317,0.782c0.048,0.176,0.099,0.352,0.146,0.529c0.091,0.029,0.108,0.201,0.234,0.137
	c0.114-0.052,0.146-0.172,0.099-0.289c-0.041-0.103-0.096-0.201-0.146-0.303c-0.011-0.04-0.018-0.079-0.029-0.117
	c-0.236-0.185-0.33-0.436-0.391-0.702c0-0.003,0.002-0.003,0.003-0.003C57.711,100.985,57.668,100.91,57.604,100.84z M54.172,95.588
	c0.12-0.141,0.146-0.314,0.096-0.494c-0.018-0.074-0.078-0.104-0.169-0.08c-0.132,0.151-0.068,0.328-0.057,0.496
	C54.043,95.578,54.104,95.661,54.172,95.588z M56.02,115.249c0.011,0.068,0.025,0.138,0.036,0.206
	c0.275,0.246,0.519,0.517,0.961,0.506c0.71-0.018,1.16-0.401,1.219-1.091c0.03-0.048,0.06-0.097,0.093-0.146
	c0.217-0.312,0.064-0.681,0.176-1.015c0.041-0.126-0.076-0.163-0.2-0.126c-0.13,0.126-0.261,0.063-0.39,0.001
	c-0.172-0.229-0.355-0.439-0.649-0.54c-0.191-0.065-0.289-0.229-0.368-0.397c-0.039-0.084,0.07-0.234-0.053-0.257
	c-0.138-0.024-0.161,0.14-0.208,0.237c-0.201,0.437-0.394,0.879-0.59,1.318c0.018,0.016,0.038,0.032,0.057,0.049
	c-0.057,0.355-0.166,0.707-0.093,1.074l0.009,0.009c-0.009,0.005-0.018,0.005-0.027,0.012
	C55.963,115.149,55.961,115.204,56.02,115.249z M56.436,93.716c-0.123,0.156-0.241,0.317-0.36,0.474
	c-0.232,0.229-0.284,0.513-0.245,0.808c0.057,0.405,0.321,0.5,0.698,0.263c0.137-0.137,0.196-0.29,0.219-0.451
	c0.097-0.387,0.07-0.871-0.112-1.115C56.548,93.579,56.491,93.647,56.436,93.716z M53.647,120.363c0.016,0.065,0.01,0.12-0.008,0.17
	c-0.007,0.01-0.011,0.023-0.02,0.035c-0.027,0.045-0.066,0.084-0.134,0.111c-0.007,0.012-0.014,0.026-0.023,0.039
	c-0.044,0.029-0.082,0.066-0.14,0.086c-0.211,0.274-0.22,0.686-0.614,0.838c-0.004,0.029,0.007,0.058,0.007,0.085
	c-0.311,0.321-0.424,0.704-0.361,1.143c-0.09,0.087-0.122,0.187-0.069,0.304c0.471-0.174,0.774,0.079,1.051,0.381
	c0.066,0.07,0.104,0.187,0.229,0.127c0.055-0.027,0.126-0.119,0.116-0.157c-0.066-0.196-0.023-0.345,0.057-0.475
	c0.134-0.056,0.216-0.181,0.278-0.292c0.161-0.285,0.389-0.482,0.682-0.623c0.102-0.041,0.198-0.086,0.214-0.205
	c0.189,0.125,0.348-0.004,0.514-0.074c0.182-0.293,0.301-0.582,0.178-0.947c-0.075-0.223,0.111-0.517-0.219-0.688
	c-0.048-0.024-0.052-0.202,0.045-0.267c0.213-0.143,0.337-0.401,0.626-0.447c0.08-0.032,0.161-0.062,0.24-0.094
	c0.242,0.012,0.487,0.064,0.723,0.031c0.521-0.068,0.769-0.498,0.742-1.203c-0.205-0.218-0.526-0.216-0.766-0.369
	c-0.035-0.071-0.067-0.145-0.103-0.217c-0.3-0.158-0.606-0.248-0.938-0.083c-0.298,0.148-0.423,0.415-0.543,0.69
	c-0.096,0.169-0.249,0.28-0.415,0.385c-0.057,0.035-0.084,0.09-0.104,0.15c0.005,0.006,0.005,0.014,0.011,0.021
	c-0.323,0.341-0.876,0.48-0.99,1.011C53.822,120.006,53.732,120.185,53.647,120.363z M132.148,84.77
	c0.346-0.417-0.033-0.726-0.177-1.072c-0.186-0.057-0.382-0.091-0.519-0.003c-0.41-2.086-0.883-4.189-1.413-6.287
	c0.054,0.02,0.106,0.028,0.161,0.06c0.015,0.075,0.043,0.133,0.142,0.094c0.036-0.006,0.068-0.022,0.098-0.04
	c0.057-0.01,0.107-0.049,0.153-0.105c0.054-0.04,0.11-0.07,0.188-0.063c0.326,0.071,0.578,0.059,0.649-0.349
	c0.026-0.134,0.23-0.24,0.354-0.358c-0.01-0.016-0.021-0.031-0.03-0.046c0.001-0.004,0.007-0.005,0.009-0.009
	c0.078-0.095,0.084-0.19,0-0.286c0.187-0.435,0.036-0.87-0.126-1.25c-0.138-0.317,0.265-0.366,0.19-0.594
	c0.065-0.179,0.129-0.359,0.197-0.538c0.067-0.093,0.129-0.188,0.194-0.282c0.302-0.263,0.755-0.312,1.01-0.644
	c-0.02-0.03-0.045-0.059-0.063-0.088c-0.291-0.251-0.761-0.113-1.023-0.426c-0.025,0-0.05-0.003-0.078-0.004
	c-0.085-0.346-0.369-0.491-0.717-0.57c-0.017-0.034-0.036-0.064-0.05-0.1c-0.144-0.456-0.417-0.724-0.965-0.67
	c-0.129,0.013-0.233-0.126-0.374-0.133c0.013-0.031,0.039-0.058,0.042-0.094c-0.003-0.029-0.015-0.049-0.021-0.074
	c0.2-0.122,0.216-0.328,0.178-0.559l-0.006,0.003c-0.376-0.238-0.346,0.288-0.598,0.287c-0.497-0.315-1-0.365-1.503-0.271
	c-0.278-0.904-0.562-1.8-0.854-2.688c0.104,0.056,0.204,0.114,0.223,0.245c-0.001,0.167,0.078,0.276,0.261,0.239
	c0.182-0.036,0.186-0.199,0.151-0.328c-0.113-0.447-0.146-0.889,0.01-1.334c-0.027-0.091-0.057-0.182-0.084-0.273l0.023-0.042
	l0.016-0.044c-0.393-0.202-0.673-0.504-0.872-0.88c-0.037-0.149-0.025-0.289,0.098-0.404c0.196-0.111,0.544,0.344,0.638-0.15
	c-0.638-0.138-0.795-0.715-1.139-1.122c-0.353-0.139-0.524-0.341-0.27-0.694c-0.107-0.065-0.215-0.14-0.353-0.065
	c-0.141-0.029-0.289-0.041-0.411-0.106c-0.029-0.079-0.057-0.158-0.086-0.237c0.084-0.063,0.17-0.127-0.059-0.165
	c-0.38-1.035-0.763-2.051-1.151-3.045c0.134,0.19,0.351,0.223,0.656,0.086c-0.366-0.231-0.648-0.528-0.801-0.926
	c-0.011,0.213,0,0.391,0.027,0.537c-0.572-1.466-1.153-2.886-1.73-4.238c0.161-0.02,0.281-0.103,0.351-0.239
	c0.032-0.062,0.069-0.111,0.117-0.147c0.003-0.001,0.003-0.004,0.008-0.006c0.033-0.026,0.079-0.036,0.123-0.049
	c0.049-0.008,0.1-0.018,0.152-0.015c0.111-0.02,0.192-0.084,0.272-0.156c0.063-0.024,0.126-0.047,0.187-0.071
	c0.221-0.04,0.34-0.139,0.235-0.365c-0.002-0.081-0.003-0.162-0.005-0.242c0.098-0.483-0.23-0.846-0.884-0.977
	c-0.187-0.095-0.236-0.252-0.231-0.438c-0.047-0.146-0.164-0.224-0.305-0.282c-0.107-0.044-0.167-0.102-0.186-0.172
	c0.012-0.042,0.023-0.071,0.033-0.122c-0.003-0.016-0.009-0.032-0.012-0.049c0.009-0.023,0.012-0.044,0.026-0.07
	c0.03-0.024,0.062-0.049,0.091-0.07c0.012-0.242,0.14-0.432,0.311-0.598c0.341-0.329,0.411-0.745,0.425-1.179
	c0.001-0.072,0.022-0.169-0.074-0.173c-0.484-0.014-0.187-0.262-0.141-0.421c0.062-0.214,0.113-0.395-0.239-0.285l0.02,0.03
	c-0.023,0.016-0.044,0.031-0.062,0.049c-0.064-0.063-0.134-0.118-0.203-0.172c0.1-0.152,0.203-0.303,0.302-0.456
	c0.037-0.058,0.076-0.113,0.097-0.174c0.033-0.003,0.063,0,0.103-0.009c0.254-0.168,0.508-0.336,0.548-0.662
	c-0.046-0.059-0.085-0.12-0.118-0.182c0.01-0.066-0.005-0.136-0.014-0.205c0.134-0.166,0.293-0.301,0.512-0.36
	c0.17-0.249,0.37-0.492,0.188-0.815c-0.251-0.233-0.501-0.466-0.754-0.7c-0.022-0.043-0.046-0.087-0.07-0.131
	c0.03-0.059,0.062-0.119,0.103-0.176c0-0.297-0.026-0.59-0.195-0.852c0.307-0.217,0.31-0.505-0.067-0.822
	c-0.282-0.239-0.447-0.475-0.379-0.856c0.093-0.55-0.092-0.666-0.69-0.478c-0.177,0.198-0.359,0.358-0.678,0.308
	c-0.146-0.023-0.293,0.023-0.424,0.108c-0.049-0.061-0.118-0.105-0.204-0.14c-0.324-0.048-0.593-0.188-0.815-0.396
	c0.225,0.022,0.452-0.038,0.678-0.101c0.466,0.049,0.635-0.257,0.783-0.592c-0.152-0.375,0.181-0.731,0.049-1.105
	c-0.192-0.125-0.468-0.339-0.61-0.088c-0.332,0.583-1.031,0.89-1.273,1.526c-0.006-0.001-0.009-0.008-0.018-0.01
	c-0.054-0.005-0.107,0-0.159,0.02c-0.284,0.208-0.601,0.383-0.966,0.304c-0.208-0.046-0.411-0.052-0.612-0.043
	c-0.028-0.068-0.06-0.138-0.09-0.207c-0.062,0.076-0.126,0.152-0.188,0.229c-0.205,0.027-0.41,0.068-0.617,0.118
	c-0.287,0.166-0.6,0.177-0.922,0.145c-0.147-0.02-0.293,0.023-0.438,0.042c-4.436-4.978-13.818-7.218-23.663-5.436
	c2.622-2.097,3.957-3.686,6.616-7.498c-3.909-0.292-11.324,2.259-13.531,3.855C71.248,19.871,48.145,9.093,48.145,9.093
	l-1.586,4.616c0,0,20.043,4.495,31.338,21.064c-11.295,0.792-18.719,13.243-18.719,13.243c9.657-3.408,8.896-1.964,17.586-3.8
	c-8.553,2.49-19.656,17.822-21.746,28.559c-2.091,10.737,11.428,23.777,11.316,36.097c-0.016,1.784-1.201,4.629-3.123,7.871
	c-0.1,0.053-0.198,0.101-0.284,0.104c-0.227,0.011-0.558-0.313-0.641,0.177c0.032,0.137-0.121,0.227-0.097,0.359
	c0.007,0.001,0.013,0,0.018,0v0.001c-0.116,0.286-0.232,0.573-0.349,0.86c-0.068,0.031-0.136,0.061-0.202,0.093
	c-0.027-0.042-0.053-0.087-0.078-0.131c-0.042,0.076-0.081,0.151-0.118,0.231c0.08,0.124,0.125,0.258,0.071,0.408
	c-0.132,0.295,0.05,0.699-0.339,0.91c-0.054,0.023-0.106,0.053-0.162,0.08c-0.054-0.014-0.143-0.011-0.159-0.042
	c-0.319-0.616-0.392-0.058-0.548,0.101c-0.235,0.025-0.473,0.08-0.708,0.067c-0.436-0.019-0.604-0.278-0.581-0.674
	c-0.072-0.155-0.169-0.065-0.265-0.028c-0.01,0.085-0.023,0.168-0.036,0.252c-0.324,0.232-0.376,0.594-0.481,0.93
	c-0.018,0.146-0.005,0.287,0.066,0.422c0.03,0.211,0.061,0.424,0.091,0.633c0.135,0.494-0.154,0.822-0.492,1.132
	c-0.175-0.05-0.243-0.189-0.309-0.333c0.023-0.049,0.033-0.122,0.077-0.146c0.209-0.117,0.464-0.249,0.248-0.5
	c-0.205-0.238-0.377,0.064-0.562,0.125c-0.286-0.232,0.095-0.489-0.024-0.728c0.027-0.05,0.055-0.099,0.082-0.15
	c-0.018-0.039-0.034-0.076-0.05-0.114c-0.208-0.283-0.514-0.311-0.836-0.297c-0.216,0.293-0.219,0.618-0.175,0.952
	c-0.044,0.136-0.014,0.231,0.118,0.272c-0.087,0.027-0.127,0.09-0.132,0.176c0.005,0.015,0.014,0.021,0.02,0.032
	c-0.036,0.015-0.073,0.026-0.108,0.04c-0.046,0.252-0.044,0.499,0.105,0.725c-0.012,0.051-0.025,0.102-0.034,0.151
	c0.023,0.013,0.042,0.03,0.059,0.049c-0.021,0.046-0.042,0.093-0.066,0.141c0.127,0.194,0.03,0.356-0.081,0.52
	c0.015,0.105,0.031,0.21,0.046,0.314c0.031,0.013,0.064,0.022,0.097,0.036c0.006,0.019,0.013,0.037,0.018,0.057
	c-0.004,0.045-0.009,0.089-0.016,0.132c-0.034,0.312-0.116,0.626-0.041,0.942c0.114,0.174,0.192,0.358,0.235,0.562
	c0.023,0.095,0.046,0.16,0.072,0.23c-0.382,0.449-0.768,0.896-1.162,1.339c-0.055-0.03-0.107-0.058-0.161-0.093
	c-0.185-0.107-0.349-0.258-0.592-0.222c-0.131,0.021-0.307-0.009-0.27,0.2c-0.012,0.16-0.125,0.281-0.182,0.424
	c-0.007,0.02-0.016,0.037-0.023,0.057c-0.005,0.012-0.01,0.024-0.016,0.037c-0.071,0.131,0.115,0.334-0.133,0.412
	c-0.059,0.024-0.109,0.059-0.15,0.098c-0.033-0.03,0-0.061-0.006-0.088c-0.041-0.26-0.078-0.518-0.208-0.754
	c0.289-0.051,0.407-0.2,0.307-0.475c-0.054-0.145-0.069-0.265,0-0.398c0-0.019-0.007-0.025-0.012-0.038
	c0.009-0.005,0.012-0.013,0.021-0.019c0.102-0.019,0.188-0.052,0.178-0.172c0.023,0.016,0.05,0.019,0.081-0.002
	c0.257-0.216,0.171-0.525,0.034-0.682c-0.125-0.143-0.273-0.432-0.544-0.363c-0.015-0.009-0.028-0.02-0.042-0.03
	c-0.074-0.058-0.166-0.046-0.251-0.051c-0.066,0.009-0.133,0.016-0.201,0.024c-0.054,0.109-0.225,0.121-0.233,0.266
	c-0.516,0.178-0.828,0.712-0.772,1.312c0.018,0.022,0.036,0.046,0.054,0.067c0.172,0.182,0.403,0.291,0.599,0.443
	c0.054,0.01,0.098,0.009,0.143,0.01c0.044,0.043,0.071,0.09,0.08,0.141c-0.062,0.053-0.12,0.111-0.178,0.17
	c-0.094,0.131-0.309,0.129-0.369,0.297c-0.057,0.14,0.027,0.262,0.055,0.393c0.134,0.26-0.042,0.468-0.127,0.695
	c-0.061,0.095-0.119,0.189-0.178,0.287c-0.034,0.006-0.068,0.012-0.1,0.018c-0.317-0.088-0.553,0.094-0.807,0.221
	c-0.141-0.092-0.099-0.261-0.176-0.377c0.1-0.385,0.373-0.719,0.36-1.136c0.389-0.13,0.43-0.375,0.25-0.689
	c-0.127-0.208-0.289-0.097-0.411-0.015c-0.238,0.16-0.067,0.377-0.051,0.571c0.021,0.02,0.042,0.041,0.057,0.062
	c-0.385,0.411-0.216,1.006-0.528,1.441c-0.223,0.098-0.248,0.633-0.676,0.273c-0.015-0.038-0.027-0.078-0.039-0.115
	c-0.009-0.038-0.013-0.076-0.02-0.111c-0.05-0.029-0.013-0.222-0.138-0.086c-0.08,0.089-0.13,0.207-0.18,0.322
	c-0.02-0.002-0.029-0.01-0.05-0.008c-0.085,0.039-0.162,0.086-0.177,0.186c0.02,0.252-0.042,0.447-0.335,0.54
	c-0.217,0.072-0.408,0.14-0.56-0.093c-0.059-0.066-0.121-0.133-0.182-0.197c-0.287,0.018-0.321,0.293-0.465,0.445
	c-0.339,0.361-0.402,0.382-0.686-0.007c-0.032-0.046-0.06-0.094-0.079-0.146c-0.062-0.151-0.137-0.296-0.296-0.378
	c-0.134-0.043-0.23-0.006-0.315,0.055c-0.151-0.521-0.289-0.562-0.877-0.27c-0.123,0.031-0.235,0.1-0.196,0.228
	c0.126,0.418-0.006,0.795-0.181,1.167c0.004,0.006,0.004,0.013,0.007,0.019c-0.093,0.065-0.089,0.223-0.241,0.233
	c-0.011,0.007-0.018,0.016-0.027,0.023c-0.034-0.017-0.068-0.034-0.104-0.051c-0.054,0.285-0.469,0.403-0.389,0.752
	c0,0.184-0.123,0.277-0.276,0.354c-0.245-0.023-0.309,0.083-0.44,0.297c-0.186,0.295-0.48,0.564-0.732,0.84
	c0.132,0.463-0.11,1.014,0.362,1.396c0.011,0.101,0.038,0.198,0.143,0.244c0.271,0.119,0.193,0.254,0.028,0.401
	c-0.157,0.055-0.312,0.109-0.467,0.165c-0.221,0.357,0.12,0.548,0.262,0.799c0.077,0.083,0.133,0.189,0.262,0.214
	c0.029,0.003,0.066,0.012,0.085-0.001c0.289-0.195,0.548-0.248,0.83-0.155c-0.044,0.026-0.088,0.057-0.132,0.083
	c-0.143-0.084-0.278-0.087-0.39,0.135c0.011,0.029,0.023,0.052,0.034,0.078c-1.243,0.723-2.455,1.281-3.619,1.647
	c-0.109-0.097-0.2-0.255-0.354-0.106c-0.086,0.081-0.07,0.154-0.014,0.217c-0.822,0.23-1.622,0.369-2.379,0.379
	c-10.562,0.131-16.345-9.299-17.854-12.264c-0.603-1.185,4.858-27.175,6.099-28.49c0.356-0.379,5.141-5.762,7.697-8.261
	c1.006-0.985,0.813-1.337-0.569-0.824c-4.343,1.608-13.571,5.099-15.507,6.394c-2.549,1.708-14.056,21.082-16.214,26.552
	c-6.304,15.95,7.327,44.583,10.783,49.253c-0.13,0.139-0.239,0.299-0.292,0.512c-0.168,0.185-0.107,0.4-0.093,0.612
	c-0.033,0.048-0.064,0.098-0.096,0.149c-0.064,0.511,0.517,0.644,0.674,1.03c0.042,0.097,0.151,0.028,0.228-0.012
	c0.073-0.04,0.22-0.098,0.227-0.087c0.34,0.563,0.442-0.028,0.608-0.127c0.246-0.148,0.486-0.306,0.672-0.507
	c0.855,0.527,1.985,1.163,3.334,1.88c-0.298,0.112-0.503,0.353-0.639,0.784c0.157,0.294,0.395,0.44,0.753,0.386
	c0.371-0.055,0.658-0.238,0.836-0.545c0.02-0.033,0.025-0.07,0.034-0.105c1.297,0.674,2.747,1.403,4.303,2.164
	c-0.002,0.146,0.071,0.293,0.244,0.415c0.255,0.172,0.483,0.183,0.69,0.039c10.485,5.078,24.994,11.249,28.527,11.249
	c4.534,0,25.226-1.839,41.612-18.688c16.387-16.85,39.003-60.319,39.003-72.248c0-4.248-0.538-8.899-1.431-13.664
	C131.785,84.653,131.974,84.702,132.148,84.77z M48.549,133.885c-0.002-0.002-0.002-0.004-0.003-0.008
	c0.114-0.111,0.232-0.21,0.365-0.287C48.79,133.689,48.67,133.787,48.549,133.885z M50.833,129.793h-0.002
	c0.006-0.007,0.007-0.018,0.015-0.024c0.003,0.005,0.007,0.011,0.008,0.016C50.845,129.786,50.839,129.791,50.833,129.793z
	 M63.1,116.926c-0.002-0.002-0.002-0.002-0.003-0.002c0.001,0,0.001,0,0.003,0C63.1,116.924,63.1,116.924,63.1,116.926z
	 M28.365,127.559c-0.078,0.027-0.082,0.109-0.035,0.171c0.104,0.136,0.25,0.248,0.421,0.241c0.126-0.008,0.054-0.123,0.023-0.201
	C28.67,127.654,28.576,127.497,28.365,127.559z M48.36,124.281c0.027,0.287-0.003,0.596,0.378,0.725
	c0.404,0.137,0.742,0.074,1.034-0.233c0.243-0.253,0.543-0.435,0.889-0.538c0.03-0.012,0.046-0.037,0.075-0.051
	c0.01,0.002,0.02,0.006,0.03,0.009c0.451-0.131,0.676-0.608,0.549-1.175c-0.378-0.371-1.24-0.381-1.739-0.045
	c-0.027-0.004-0.052-0.009-0.079-0.015c-0.007-0.051-0.018-0.101-0.039-0.147c-0.182-0.257-0.51-0.137-0.744-0.26
	c-0.095-0.037-0.189-0.054-0.278,0.008c-0.04,0.143-0.079,0.281-0.12,0.421c0.014,0.039,0.025,0.077,0.037,0.114
	C48.251,123.49,48.376,123.885,48.36,124.281z M49.925,119.432c-0.073-0.009-0.146-0.021-0.222,0
	c-0.166,0.072-0.317,0.16-0.338,0.359c-0.029,0.051-0.06,0.102-0.088,0.149c-0.028,0.204-0.059,0.407-0.085,0.612
	c0.094,0.588,0.425,0.764,0.99,0.553c0.025,0.014,0.052,0.026,0.075,0.041c0.118-0.104,0.238-0.203,0.357-0.304
	c0.067-0.026,0.128-0.06,0.171-0.114c0.045-0.138,0.088-0.273,0.112-0.408c0.021,0.131,0.072,0.26,0.186,0.371
	c0.175,0.158,0.366,0.311,0.619,0.191c0.281-0.133,0.444-0.36,0.482-0.658c0.016-0.109-0.001-0.221-0.003-0.33
	c-0.193-0.44-0.608-0.546-0.947-0.24c-0.001,0.022-0.018,0.037-0.038,0.045c-0.151,0.098-0.233,0.23-0.276,0.368
	c-0.012-0.196-0.095-0.384-0.321-0.55c-0.193-0.057-0.388-0.104-0.563-0.063C49.996,119.447,49.962,119.438,49.925,119.432z
	 M50.773,114.137c0.169-0.293,0.134-0.611-0.118-0.794c-0.174-0.128-0.362,0.085-0.455,0.278c-0.107,0.254-0.198,0.528,0.082,0.715
	C50.499,114.483,50.665,114.32,50.773,114.137z"/>
</svg>
